<svg width="24" height="24" viewBox="0 0 24 24" fill="none" xmlns="http://www.w3.org/2000/svg">
<path d="M18.5423 7.55096H14.1815V8.76372H18.5595L18.5423 7.55096ZM17.6219 15.8941C17.2911 16.1133 16.9005 16.2245 16.5038 16.2123C16.2412 16.2397 15.9758 16.2126 15.7242 16.1326C15.4726 16.0527 15.2402 15.9217 15.0416 15.7478C14.6743 15.3314 14.4831 14.7887 14.5083 14.234H20.2023C20.2433 13.6565 20.194 13.0761 20.0561 12.5138C19.9226 11.9788 19.6892 11.474 19.368 11.0258C19.0447 10.5911 18.6271 10.2353 18.1466 9.98508C17.612 9.72149 17.0224 9.58882 16.4264 9.59803C15.8659 9.59392 15.3102 9.70213 14.7922 9.91627C14.3178 10.1162 13.888 10.4086 13.5278 10.7764C13.1686 11.1515 12.8905 11.5965 12.7107 12.0838C12.5178 12.6098 12.4216 13.1663 12.4269 13.7266C12.418 14.2948 12.5112 14.8599 12.7021 15.3952C12.8642 15.8799 13.1215 16.3273 13.459 16.7112C13.8081 17.088 14.2372 17.3819 14.7148 17.5713C15.2473 17.7742 15.8136 17.8734 16.3834 17.8637C17.1828 17.8887 17.972 17.6794 18.6541 17.2616C19.3429 16.7721 19.8389 16.0571 20.0561 15.2404H18.1552C18.0534 15.5106 17.8662 15.7401 17.6219 15.8941ZM14.6717 12.3504C14.7387 12.136 14.8498 11.9379 14.998 11.769C15.1461 11.6001 15.328 11.4642 15.5319 11.3699C15.8019 11.2483 16.096 11.1895 16.392 11.1978C16.6058 11.1796 16.8211 11.2078 17.023 11.2805C17.2249 11.3533 17.4087 11.4688 17.5617 11.6193C17.854 11.977 18.0415 12.4087 18.1036 12.8665H14.5341C14.5481 12.6917 14.5798 12.5188 14.6287 12.3504H14.6717ZM10.1217 11.9375C10.5595 11.7553 10.9399 11.4581 11.2227 11.0774C11.4826 10.6732 11.6118 10.1987 11.5925 9.71845C11.6094 9.28051 11.524 8.84467 11.3431 8.44548C11.1911 8.09964 10.9472 7.80213 10.6378 7.58536C10.3098 7.35999 9.93734 7.20748 9.54547 7.1381C9.08171 7.04084 8.60869 6.99469 8.13488 7.00049H3V17.8207H8.2467C8.72551 17.8211 9.20242 17.7604 9.66588 17.6401C10.1052 17.5265 10.5214 17.3373 10.8958 17.081C11.2586 16.8296 11.554 16.4929 11.756 16.1005C11.9795 15.6617 12.089 15.1736 12.0742 14.6813C12.0905 14.0713 11.9194 13.4709 11.5839 12.9611C11.2232 12.4484 10.6881 12.0845 10.0787 11.9375H10.1217ZM5.38252 8.84973H7.61021C7.81487 8.84948 8.01918 8.86674 8.22089 8.90134C8.40663 8.92886 8.58501 8.9932 8.74556 9.09056C8.90068 9.17831 9.02637 9.30998 9.10681 9.46901C9.20643 9.65972 9.2539 9.87335 9.24443 10.0883C9.26045 10.2734 9.23214 10.4597 9.16184 10.6317C9.09154 10.8037 8.98128 10.9565 8.84017 11.0774C8.53236 11.289 8.16402 11.3947 7.79084 11.3785H5.38252V8.84973ZM9.54547 15.249C9.4571 15.4243 9.32347 15.5728 9.15842 15.679C8.98666 15.7859 8.7974 15.8616 8.59934 15.9027C8.3792 15.9519 8.15401 15.975 7.92845 15.9715H5.34811V13.0041H7.92845C8.37125 12.9847 8.80854 13.1083 9.17562 13.3567C9.34146 13.5056 9.46993 13.6913 9.55062 13.899C9.63131 14.1067 9.66196 14.3305 9.64008 14.5523C9.66334 14.7887 9.63093 15.0273 9.54547 15.249V15.249Z" fill="#212121"/>
</svg>
