<svg width="78" height="78" viewBox="0 0 78 78" fill="none" xmlns="http://www.w3.org/2000/svg">
<rect width="77.1875" height="77.1875" rx="38.5938" fill="#E8E8E8"/>
<path opacity="0.1" d="M61.7222 40.3413C57.5023 38.1696 54.7849 36.6028 53.611 35.6633C53.8132 35.6311 54.0512 35.6056 54.3229 35.5944C55.4287 35.554 56.3248 35.3354 56.9663 34.9566C57.8302 34.4648 58.325 33.6525 58.325 32.7325C58.328 31.5123 57.4536 30.3033 55.9235 29.4154C54.671 28.6916 53.096 28.2589 51.7118 28.2589C50.791 28.2589 50.008 28.4415 49.3889 28.7994C48.5243 29.2949 47.9876 30.1035 47.8782 31.0639C47.8603 31.2114 47.5886 31.3109 47.1499 31.3109H47.1469C45.2558 31.254 41.7225 28.9648 37.6313 26.3132L36.8101 25.7817L35.9477 26.3245C35.0726 26.8283 34.2754 27.3014 33.5529 27.7356C32.9285 28.1121 32.3633 28.4505 31.8266 28.7574C30.1894 29.7075 28.9655 30.2966 27.9227 30.2966C27.8718 30.2966 27.8209 30.2951 27.7736 30.2928C26.9083 30.2457 26.5093 29.7718 26.4105 29.4993C26.1103 28.6713 25.4972 27.9617 24.6954 27.5072C23.9071 27.0506 22.904 26.8088 21.7961 26.8088C20.519 26.8088 19.2642 27.1277 18.2634 27.7049C17.0416 28.4086 16.326 29.4514 16.3005 30.5645C16.2751 31.6238 16.8635 32.5805 17.9295 33.1966C18.6414 33.5994 19.533 33.8637 20.5706 33.9819C21.1613 34.0531 21.6224 34.1759 21.945 34.2948C21.0774 34.9739 19.2388 35.9949 17.6825 36.8595C16.8695 37.308 16.0333 37.7729 15.1739 38.2678L13 39.5201L15.1057 40.8834C20.763 44.5471 24.271 46.545 26.6021 46.6102L26.7399 46.6124C28.8112 46.6124 29.9192 45.1886 30.0764 43.8403C30.0801 43.8344 30.1071 43.803 30.1782 43.7625C30.2561 43.7183 30.5608 43.5731 31.2329 43.5731C32.2144 43.5731 33.371 43.889 34.2529 44.3972C34.7042 44.6578 34.9745 44.9026 35.1235 45.077C34.9124 45.1504 34.5223 45.2455 33.8845 45.2709C30.2688 45.4147 29.9941 47.2921 29.9955 47.8588L29.9978 47.9726L30.0038 48.0392C30.1662 49.904 32.5251 51.4177 39.5312 55.0185L40.2732 55.4003L40.9964 54.9848C41.8527 54.4922 42.6859 54.0296 43.5162 53.5752C47.456 51.3892 49.6262 50.1855 49.6217 48.341C49.6217 48.2227 49.612 48.1052 49.594 48.0011C49.2849 46.1296 46.9305 45.5793 45.5613 45.4184C44.5274 45.2919 44.0117 45.0373 43.8193 44.9236C43.7332 44.8734 43.6726 44.8278 43.6329 44.7918C43.701 44.7035 43.8478 44.5598 44.1195 44.4033C44.7161 44.0582 45.5403 43.8606 46.3825 43.8606C47.0645 43.8606 47.6904 43.9953 48.0968 44.2288C48.278 44.3329 48.5115 44.5089 48.6029 44.7656C49.0086 45.8833 50.2034 47.2271 52.2359 47.337C52.3317 47.3423 52.4276 47.3446 52.5241 47.3446C54.5655 47.3446 56.5082 46.179 59.4509 44.4131C60.1561 43.9885 60.9294 43.5266 61.7858 43.0333L64.2247 41.6289L61.7222 40.3413Z" fill="black"/>
<path d="M61.0205 37.1049C61.0205 37.1049 54.803 33.8134 53.1938 32.6497C53.5432 32.5838 53.9114 32.5431 54.2671 32.5285C55.3173 32.4901 55.9075 32.2679 56.2064 32.0915C56.602 31.8659 56.7912 31.551 56.7916 31.1954C56.7926 30.612 56.7912 28.4848 56.7916 28.1291C56.7926 27.5061 56.2152 26.7577 55.1563 26.143C53.4852 25.1771 51.2391 24.9011 50.1506 25.5297C49.844 25.7059 49.4683 26.0432 49.3993 26.6489C49.3072 27.4078 48.6558 28.2817 47.0996 28.2434C44.8075 28.1744 41.4346 26.005 36.797 23L36.7126 23.0537C35.8464 23.5519 35.0568 24.0196 34.3439 24.4488C33.7077 24.8321 33.1328 25.1771 32.5961 25.4837C30.5876 26.6489 29.1542 27.3005 27.69 27.2238C26.1338 27.1395 25.2523 26.2043 24.9686 25.4224C24.7464 24.8091 24.2788 24.4335 23.9263 24.2342C22.6689 23.5059 20.4767 23.5978 19.0277 24.4335C18.2497 24.8822 17.8454 25.4546 17.8323 26.0013C17.821 26.4727 17.8454 28.5209 17.8323 29.0676C17.821 29.5389 18.1008 29.9912 18.6828 30.3284C19.0354 30.5277 19.6793 30.8037 20.7525 30.9263C21.2804 30.9897 21.8483 31.1098 22.3556 31.2842C21.3845 31.9565 20.0127 32.7184 18.4222 33.6017C17.6173 34.0463 15.9385 34.9968 15.9385 34.9968V38.0631C15.9385 38.0631 24.4628 43.4827 26.6475 43.5441C27.9277 43.5824 28.4719 42.8235 28.5487 42.1566C28.6252 41.4821 29.0622 41.0988 29.4148 40.8995C30.6567 40.1866 33.171 40.4702 35.0184 41.5357C35.2372 41.6619 35.434 41.7943 35.6142 41.9296C35.2324 42.0608 34.6945 42.173 33.9453 42.2026C32.82 42.2476 31.526 42.5495 31.5285 43.2592C31.5285 43.2748 31.5292 43.2905 31.5305 43.3065C31.5767 43.8337 31.5292 46.3568 31.5305 46.3728C31.6379 47.5993 35.3557 49.6153 40.2312 52.1221C41.0974 51.6238 41.9407 51.1562 42.7532 50.7116C45.7242 49.0626 48.0907 47.752 48.0885 46.8074C48.0883 46.7772 48.0896 44.2482 48.0885 43.7411C48.0883 43.7109 48.086 43.681 48.0809 43.6515C47.9582 42.9078 46.5478 42.4786 45.3749 42.3406C44.2536 42.2031 43.5466 41.9239 43.1341 41.6929C43.2082 41.6436 43.2695 41.5903 43.3511 41.5434C44.9532 40.6158 47.4216 40.5392 48.8628 41.3671C49.2613 41.597 49.798 42.0186 50.0432 42.7086C50.2885 43.3831 51.032 44.2034 52.32 44.2724C53.9834 44.3643 55.7466 43.3142 58.6595 41.5663C59.3724 41.1371 61.0205 40.1712 61.0205 40.1712V37.1049Z" fill="#343434"/>
<path d="M40.2275 48.892C35.6013 46.5126 31.775 44.4506 31.6739 43.2938C31.6706 42.6914 32.8153 42.3917 33.9511 42.3465C35.1666 42.2985 35.8389 42.0379 36.1889 41.8277C36.6837 41.5455 36.9472 41.1399 36.9483 40.6569C36.95 39.8809 36.2557 39.0167 35.0908 38.345C33.9527 37.6883 32.5103 37.2962 31.2336 37.2962C30.4668 37.2962 29.8135 37.4389 29.344 37.7085C28.9626 37.9237 28.4902 38.3357 28.4065 39.074C28.3357 39.6838 27.8617 40.3353 26.7405 40.3353L26.6524 40.3339C24.5566 40.2752 20.3652 37.6881 16.2148 35.0043C16.9934 34.5577 17.7528 34.1361 18.492 33.7275C21.9368 31.8144 24.191 30.5626 24.0073 29.4088C23.8393 28.4279 22.225 27.892 20.7702 27.7173C19.9586 27.6246 19.2615 27.4238 18.7537 27.1368C18.2426 26.8408 17.9662 26.4386 17.9763 26.0047C17.9887 25.4899 18.3982 24.9628 19.0997 24.5583C19.84 24.1312 20.823 23.8862 21.7953 23.8862C22.5969 23.8862 23.3282 24.0539 23.8545 24.3586C24.1258 24.512 24.6117 24.8594 24.8335 25.4716C25.1312 26.2911 26.0558 27.2795 27.6825 27.3674C27.7628 27.3716 27.8431 27.3738 27.9234 27.3738C29.3468 27.3738 30.7415 26.7265 32.6681 25.6081C33.2057 25.3014 33.7809 24.956 34.4184 24.5721C35.1306 24.1432 35.9193 23.6758 36.7849 23.1785L36.7967 23.1709C41.2403 26.0499 44.7514 28.3164 47.0954 28.3872L47.1982 28.3882C48.7743 28.3882 49.4456 27.4606 49.5422 26.6664C49.6051 26.1167 49.9466 25.8129 50.2224 25.6545C50.583 25.4464 51.098 25.3363 51.712 25.3363C52.8152 25.3363 54.0757 25.6842 55.0845 26.2673C56.05 26.8278 56.6493 27.5409 56.6482 28.1287C56.6477 28.447 56.4752 28.7064 56.1354 28.9003C55.8983 29.0401 55.3428 29.2789 54.2621 29.3184C53.7909 29.3378 52.2096 29.4538 51.6081 30.1363C51.4356 30.332 51.3592 30.5556 51.3801 30.8008C51.4845 32.0969 54.88 34.1002 60.7211 37.112C59.9443 37.5616 59.2365 37.9852 58.5855 38.3767C55.8855 39.9972 54.1009 41.0678 52.5236 41.0678C52.4585 41.0678 52.3934 41.0661 52.3282 41.0625C51.1121 40.9973 50.41 40.2303 50.1792 39.5931C49.9202 38.8659 49.3596 38.4213 48.935 38.1761C48.2694 37.7939 47.3628 37.5835 46.3826 37.5835C45.2547 37.5835 44.124 37.8638 43.2798 38.3528C42.4131 38.8502 41.9148 39.5304 41.9137 40.2182C41.9132 40.8246 42.2917 41.3776 42.9804 41.7752C43.3809 42.014 44.1201 42.3316 45.3575 42.4833C46.5685 42.6256 47.8363 43.0492 47.939 43.6746C47.943 43.6979 47.9447 43.7207 47.9453 43.7437C47.9475 44.598 45.5209 45.9448 42.7119 47.504C41.8935 47.9523 41.0706 48.4078 40.2275 48.892Z" fill="#FAFAFA"/>
<path d="M36.792 23.3394C41.3885 26.3175 44.7186 28.4594 47.0926 28.5308L47.1977 28.5322C48.8679 28.5322 49.5814 27.5363 49.6851 26.6814C49.7297 26.2891 49.9346 25.9855 50.2944 25.7788C50.6326 25.5834 51.1227 25.4801 51.7114 25.4801C52.7905 25.4801 54.0245 25.821 55.0119 26.3917C55.9332 26.9265 56.5049 27.5921 56.5041 28.1287C56.5037 28.3915 56.3556 28.6091 56.0603 28.7775C55.8367 28.9095 55.305 29.1365 54.2554 29.1749C53.6341 29.2003 52.1218 29.3356 51.5001 30.0411C51.3034 30.2644 51.2122 30.5312 51.2361 30.8115C51.3334 32.0183 53.6642 33.625 60.4212 37.1195C59.7324 37.5206 59.0995 37.8994 58.5116 38.2534C55.8314 39.8617 54.0608 40.9241 52.5231 40.9241C52.4606 40.9241 52.3982 40.9223 52.3355 40.9189C51.1897 40.8575 50.5301 40.1399 50.3142 39.546C50.0409 38.7769 49.4523 38.3089 49.006 38.0514C48.3193 37.6569 47.3875 37.4397 46.3823 37.4396C45.23 37.4396 44.0726 37.727 43.2078 38.2277C42.295 38.7518 41.7709 39.4773 41.77 40.218C41.7692 40.8781 42.1734 41.4753 42.9048 41.8977C43.3189 42.1446 44.0775 42.4713 45.3413 42.6263C46.6879 42.7847 47.7208 43.2355 47.7973 43.6994C47.7997 43.7134 47.8009 43.7275 47.8009 43.7418C47.8027 44.5138 45.1785 45.9702 42.6407 47.3788L42.6151 47.393C41.6784 47.9056 40.9335 48.3215 40.2236 48.7285C36.8625 47.0002 31.9186 44.4427 31.8161 43.2582C31.8147 42.8691 32.735 42.5389 33.9567 42.49C35.2019 42.4408 35.8979 42.1697 36.2572 41.9542C36.7941 41.6478 37.0904 41.1873 37.0917 40.6573C37.0936 39.8293 36.3723 38.9183 35.1621 38.2203C34.0031 37.5518 32.5343 37.1527 31.2329 37.1526C30.4411 37.1526 29.763 37.3017 29.2733 37.5828C28.6924 37.9112 28.3335 38.435 28.2629 39.0575C28.1998 39.6058 27.7666 40.1917 26.7397 40.1917L26.6556 40.1904C24.6297 40.1334 20.5582 37.638 16.4909 35.0116C17.2273 34.5916 17.9383 34.1976 18.5618 33.8531L18.5936 33.8354C22.0591 31.911 24.3486 30.6396 24.1483 29.3831C23.9675 28.3253 22.2933 27.7553 20.7851 27.5744C19.7847 27.46 19.1666 27.2053 18.827 27.0133C18.3619 26.7439 18.1107 26.3869 18.1198 26.0082C18.1309 25.5448 18.5141 25.0617 19.1713 24.6826C19.8907 24.2678 20.847 24.0299 21.795 24.0299C22.5719 24.0299 23.2776 24.1909 23.7846 24.4845C24.0374 24.6275 24.4923 24.9521 24.6983 25.5204C25.0106 26.3812 25.9775 27.4191 27.675 27.511C27.7576 27.5153 27.8403 27.5175 27.9229 27.5175C29.3788 27.5175 30.7917 26.863 32.7387 25.7334C33.2797 25.4243 33.8529 25.0804 34.4922 24.6952C35.2847 24.218 36.0348 23.776 36.792 23.3394ZM36.797 23L36.7125 23.0537C35.8463 23.5519 35.0569 24.0196 34.3439 24.4488C33.7077 24.8321 33.1328 25.1771 32.5961 25.4837C30.6942 26.5871 29.3079 27.2299 27.9229 27.2299C27.8454 27.2299 27.7677 27.2279 27.69 27.2238C26.1338 27.1395 25.2523 26.2043 24.9686 25.4224C24.7463 24.8091 24.2788 24.4335 23.9262 24.2342C23.3559 23.9038 22.5935 23.7423 21.795 23.7423C20.8333 23.7423 19.8194 23.9769 19.0277 24.4335C18.2497 24.8822 17.8453 25.4546 17.8323 26.0013C17.821 26.4728 18.1008 26.925 18.6828 27.2621C19.0354 27.4614 19.6793 27.7374 20.7525 27.86C22.094 28.021 23.7115 28.5346 23.8649 29.4316C24.0334 30.4894 21.6801 31.7925 18.4222 33.6017C17.6173 34.0463 16.7894 34.5063 15.9385 34.9968C20.0934 37.6875 24.4628 40.4165 26.6475 40.4778C26.6787 40.4788 26.7094 40.4793 26.7397 40.4793C27.954 40.4793 28.4738 39.741 28.5486 39.0903C28.6252 38.4158 29.0622 38.0325 29.4148 37.8332C29.8776 37.5675 30.517 37.4402 31.2329 37.4402C32.4379 37.4403 33.8595 37.801 35.0184 38.4694C36.8658 39.5349 37.3642 40.9914 36.1147 41.7044C35.7697 41.9114 35.1104 42.1566 33.9453 42.2026C32.8201 42.2476 31.526 42.5496 31.5285 43.2592C31.5285 43.2748 31.5292 43.2905 31.5306 43.3065C31.6379 44.533 35.3558 46.549 40.2312 49.0558C41.0974 48.5575 41.9407 48.0899 42.7531 47.6453C45.7242 45.9963 48.0907 44.6857 48.0885 43.7411C48.0884 43.7109 48.0859 43.681 48.0809 43.6515C47.9582 42.9078 46.5478 42.4786 45.3749 42.3406C44.1866 42.195 43.4508 41.8884 43.0521 41.6507C41.6186 40.8228 41.749 39.397 43.3511 38.4771C44.2098 37.9799 45.3173 37.7272 46.3823 37.7272C47.3041 37.7273 48.1941 37.9166 48.8628 38.3008C49.2613 38.5307 49.798 38.9524 50.0432 39.6423C50.2884 40.3169 51.032 41.1371 52.3201 41.2061C52.3876 41.2098 52.4552 41.2117 52.5231 41.2117C54.1284 41.2117 55.8649 40.1769 58.6595 38.5C59.3725 38.0708 60.1544 37.6032 61.0205 37.1049C55.2253 34.123 51.6223 32.0226 51.5228 30.7884C51.4461 29.8915 52.9561 29.5159 54.2671 29.4622C55.3173 29.4239 55.9075 29.2016 56.2064 29.0252C56.6022 28.7996 56.7912 28.4848 56.7917 28.1291C56.7926 27.5061 56.2152 26.7577 55.1563 26.143C54.0919 25.5277 52.7945 25.1924 51.7111 25.1925C51.0938 25.1925 50.5457 25.3015 50.1506 25.5297C49.844 25.7059 49.4683 26.0432 49.3993 26.6489C49.3092 27.3917 48.6834 28.2446 47.1977 28.2446C47.1654 28.2446 47.1327 28.2442 47.0996 28.2434C44.8075 28.1744 41.4347 26.005 36.797 23Z" fill="#343434"/>
</svg>
