<svg width="78" height="78" viewBox="0 0 78 78" fill="none" xmlns="http://www.w3.org/2000/svg">
<rect width="77.1875" height="77.1875" rx="38.5938" fill="#E8E8E8"/>
<path opacity="0.1" d="M58.4728 38.2258C56.6923 37.3498 54.5902 36.3158 53.4303 35.5722C53.5823 35.5533 53.7512 35.5394 53.936 35.5322C54.9911 35.4929 55.8562 35.2841 56.5118 34.9079C57.3769 34.408 57.855 33.5872 57.823 32.6594C57.7852 31.4989 56.931 30.3558 55.4837 29.5263C54.2664 28.8227 52.7376 28.4021 51.3951 28.4021C50.5009 28.4021 49.7405 28.5796 49.1388 28.9275C48.2925 29.4121 47.7678 30.1979 47.6623 31.1285C47.6427 31.2886 47.335 31.3606 46.9631 31.3606H46.9544C45.7334 31.3279 43.8801 30.0422 41.5364 28.4159C40.7776 27.8884 39.908 27.3238 38.9817 26.722L38.2127 26.2221L37.3897 25.7324L36.7399 26.1276L36.6096 26.2025C35.7562 26.6958 34.9252 27.1586 34.0528 27.6345C30.2698 29.7227 28.1866 30.8731 28.2128 32.6966C28.215 32.7919 28.2237 32.8843 28.2376 32.9695C28.5199 34.7747 30.8141 35.3247 32.1588 35.4921C33.1075 35.6078 33.6344 35.8429 33.8527 35.9658C33.9378 36.0153 33.9967 36.0604 34.0354 36.0954C33.9698 36.1819 33.8279 36.3238 33.5653 36.4759C32.989 36.8062 32.1617 37.0041 31.3533 37.0041C30.6926 37.0041 30.0872 36.8738 29.7117 36.6585C29.5276 36.5486 29.2905 36.3682 29.2046 36.1303C28.8138 35.0461 27.6562 33.7378 25.6676 33.62C25.5868 33.6156 25.5061 33.6134 25.4245 33.6134C23.4745 33.6134 21.5478 34.7754 18.6234 36.5392C17.9089 36.9743 17.1056 37.4604 16.2288 37.969L14 39.2612L40.6298 54.631L41.3771 54.1944C42.0334 53.811 42.6527 53.4398 43.2253 53.0957L43.8125 52.7442C46.2646 51.2621 48.0356 50.1903 49.3199 50.1903L49.4487 50.1939C50.5023 50.2514 50.7534 50.9216 50.7643 50.9514C51.0502 51.7503 51.6265 52.4226 52.4473 52.9051C53.2142 53.3445 54.1878 53.5766 55.2632 53.5766C56.5045 53.5766 57.7226 53.2688 58.6933 52.7086C59.9338 51.9933 60.6295 50.9324 60.6004 49.7995C60.5763 48.8187 60.0022 47.9353 59.0395 47.3845C58.3724 46.9916 57.5014 46.7282 56.45 46.6009C55.8781 46.5318 55.4313 46.4146 55.1177 46.3004C55.9574 45.6499 57.7197 44.6785 59.196 43.8643C60.0182 43.4124 60.8638 42.9438 61.7318 42.4388L64.0981 41.0607L61.6555 39.8215C60.5639 39.2686 59.5023 38.7373 58.4728 38.2258Z" fill="black"/>
<path d="M60.9818 39.6603V36.6799C60.9818 36.6799 58.8359 35.5995 57.8151 35.0928C55.8966 34.1487 54.2501 33.3351 53.0791 32.6299C53.3448 32.5908 53.616 32.5629 53.881 32.5521C54.9018 32.5148 55.4681 32.2988 55.7661 32.1274C56.1629 31.8983 56.3459 31.578 56.3341 31.218C56.3156 30.6586 56.3459 28.5976 56.3341 28.2376C56.3142 27.6377 55.7531 26.9275 54.7379 26.3455C53.1136 25.4067 50.938 25.1384 49.8799 25.7494C49.5818 25.9208 49.2093 26.2486 49.1423 26.8373C49.0528 27.5749 48.4194 28.4243 46.9144 28.3796C45.2528 28.3348 43.338 27.0086 40.6855 25.1682C39.7317 24.5051 38.5992 23.7824 37.3995 23L37.3624 23.0224H37.3549C36.4906 23.5216 35.6486 23.991 34.8289 24.438C31.9712 26.0153 29.6895 27.2693 29.7029 28.1866C29.7033 28.214 29.6956 30.669 29.7029 31.167C29.7033 31.1943 29.7058 31.2214 29.7103 31.2482C29.822 31.9635 31.2005 32.3807 32.3405 32.5223C33.4343 32.6564 34.117 32.9293 34.5226 33.1478C34.4493 33.1972 34.3886 33.2502 34.3074 33.2972C32.7502 34.1913 30.3509 34.2733 28.9503 33.4685C28.5627 33.2376 28.0412 32.8278 27.8027 32.1646C27.5642 31.5015 26.8416 30.7116 25.5899 30.6372C24.0176 30.5553 22.1773 31.6654 19.3981 33.3419C18.6753 33.7815 16.9766 34.7874 16.9766 34.7874V37.7678L40.6258 51.4179C41.505 50.9038 42.3172 50.4119 43.0399 49.9799C45.8862 48.2587 47.7713 47.1187 49.5297 47.2156C51.0422 47.2975 51.8992 48.2065 52.1673 48.9591C52.3834 49.5626 52.8453 49.9203 53.1881 50.1214C54.41 50.8218 56.5411 50.7398 57.9492 49.9277C58.7314 49.4766 59.1251 48.8946 59.1112 48.3462C59.1002 47.9071 59.1251 45.9142 59.1112 45.3658C59.1002 44.9267 58.8278 44.5093 58.2846 44.1979C57.9418 43.9967 57.3159 43.7359 56.2728 43.6092C55.7621 43.548 55.2129 43.4334 54.7216 43.2665C55.6528 42.6267 56.9609 41.9047 58.4782 41.0685C59.2904 40.6215 60.9818 39.6603 60.9818 39.6603Z" fill="#343434"/>
<path d="M17.2549 34.7867C18.0613 34.3164 18.8038 33.8668 19.4704 33.4611C22.1544 31.8423 23.9271 30.7725 25.4252 30.7725C25.4776 30.7725 25.53 30.7739 25.5824 30.7766C26.7677 30.8473 27.4485 31.5939 27.6708 32.212C27.8678 32.7593 28.2855 33.2351 28.8784 33.5886C29.5237 33.9596 30.4022 34.1632 31.3538 34.1632C32.4506 34.1632 33.5524 33.8916 34.3768 33.4183C35.2203 32.9296 35.704 32.2655 35.704 31.5958C35.7035 31.0067 35.3355 30.4698 34.6672 30.0841C34.2583 29.8523 33.5262 29.5466 32.3567 29.4033C31.1747 29.2564 29.9408 28.8418 29.848 28.2464C29.8437 28.2232 29.8426 28.2035 29.842 28.1838C29.83 27.3564 32.1552 26.0732 34.8474 24.5871C35.7046 24.1189 36.5383 23.6551 37.3921 23.1621L38.1063 23.6264C39.0098 24.2133 39.8637 24.7675 40.6051 25.2829C43.2749 27.135 45.2038 28.4732 46.9099 28.5193L47.0267 28.521C48.5407 28.521 49.1871 27.6232 49.2805 26.8542C49.3411 26.324 49.6773 26.0268 49.9493 25.8706C50.2992 25.6683 50.7993 25.5613 51.3944 25.5613C52.4634 25.5613 53.6869 25.8996 54.6674 26.4662C55.6043 27.0035 56.1748 27.6674 56.194 28.2423C56.2043 28.5655 56.0367 28.8292 55.6955 29.026C55.4078 29.1914 54.858 29.3962 53.8758 29.4319C53.4161 29.4507 51.8737 29.5632 51.2885 30.2271C51.1209 30.4171 51.0461 30.6344 51.0663 30.8725C51.1591 31.9242 53.5444 33.1472 57.7527 35.218C58.701 35.6886 59.6816 36.1789 60.6883 36.6883C59.9103 37.1379 59.1514 37.558 58.4106 37.9656C55.1097 39.7842 52.9297 40.9855 53.1093 42.1113C53.2714 43.0597 54.8405 43.5783 56.2556 43.7479C57.2821 43.8726 57.887 44.127 58.2129 44.3187C58.6923 44.593 58.9609 44.9659 58.9707 45.3693C58.9844 45.8875 58.5864 46.4184 57.8788 46.826C57.1625 47.2393 56.2092 47.4762 55.2636 47.4762C54.4835 47.4762 53.7704 47.3141 53.2567 47.0198C52.779 46.7389 52.4563 46.3726 52.2985 45.9317C52.0152 45.1384 51.1225 44.1813 49.5371 44.0956C49.465 44.0915 49.3924 44.0896 49.3198 44.0896C47.5808 44.0896 45.7453 45.1996 42.9675 46.8798L42.4013 47.2191C41.8494 47.5499 41.2548 47.9067 40.6247 48.2758L17.2549 34.7867Z" fill="#FAFAFA"/>
<path d="M37.388 23.3259L38.0353 23.7468C38.9364 24.3318 39.7875 24.8843 40.5262 25.3978C43.2154 27.2637 45.1584 28.6119 46.9061 28.659C46.947 28.6602 46.9876 28.6608 47.0273 28.6608C48.6331 28.6608 49.3197 27.6966 49.42 26.8688C49.4631 26.4907 49.6646 26.1956 50.0196 25.9914C50.3485 25.8016 50.824 25.7012 51.3948 25.7011C52.4403 25.7011 53.6377 26.0325 54.5989 26.588C55.4797 27.093 56.0376 27.7286 56.0546 28.2469C56.0635 28.5143 55.9193 28.7357 55.6268 28.9047C55.3527 29.0623 54.8256 29.2576 53.8697 29.2924C53.2636 29.3171 51.7889 29.4485 51.1841 30.1346C50.993 30.3515 50.9043 30.6108 50.9277 30.8853C51.0273 32.0136 53.3155 33.19 57.6909 35.3433C58.5663 35.7778 59.4692 36.2288 60.3949 36.6963C59.6872 37.102 58.997 37.4835 58.3433 37.8433C54.9912 39.6906 52.7767 40.911 52.9722 42.1365C53.1471 43.159 54.7747 43.7111 56.2391 43.8867C57.2428 44.0087 57.8285 44.2544 58.1457 44.4405C58.5855 44.6926 58.8228 45.015 58.8318 45.3729C58.8436 45.8381 58.471 46.3237 57.8096 46.7052C57.1138 47.1064 56.1862 47.3365 55.2644 47.3365C54.508 47.3365 53.82 47.181 53.3296 46.9C52.8798 46.6359 52.5773 46.2942 52.4306 45.8848C52.1336 45.0511 51.1995 44.0457 49.5451 43.956C49.4705 43.952 49.3955 43.9499 49.3203 43.9499C47.5429 43.9498 45.6944 45.0676 42.8964 46.7595L42.3321 47.0978C41.8008 47.4165 41.2292 47.7595 40.6248 48.1141L17.5335 34.7861C18.266 34.3562 18.9478 33.943 19.543 33.5809C22.2069 31.974 23.9667 30.9125 25.4252 30.9125C25.4756 30.9125 25.5254 30.9138 25.5732 30.9163C26.6922 30.9828 27.3319 31.6813 27.5398 32.2592C27.7475 32.8371 28.1858 33.3383 28.811 33.711C29.4755 34.0927 30.3787 34.303 31.354 34.303C32.4745 34.303 33.6016 34.0248 34.4475 33.5392C35.3356 33.025 35.8447 32.3166 35.8443 31.5957C35.8439 30.9547 35.451 30.3749 34.7358 29.9618C34.3162 29.7243 33.566 29.4106 32.375 29.2645C31.0595 29.1011 30.055 28.6638 29.9859 28.2216C29.9838 28.2086 29.9825 28.1956 29.9824 28.1825C29.9715 27.4381 32.4851 26.0509 34.9159 24.7093L34.9627 24.6835C35.8292 24.2109 36.6239 23.7661 37.388 23.3259ZM37.3996 23L37.3624 23.0224H37.3549C36.4906 23.5216 35.6486 23.991 34.8289 24.438C31.9712 26.0153 29.6895 27.2693 29.7029 28.1866C29.7033 28.214 29.7057 28.241 29.7102 28.2678C29.822 28.9831 31.2005 29.4003 32.3405 29.5419C33.4953 29.6835 34.2031 29.9815 34.598 30.2051C35.9913 31.0098 35.8647 32.3956 34.3075 33.2972C33.4708 33.7775 32.3913 34.0235 31.354 34.0235C30.4605 34.0235 29.5985 33.8409 28.9503 33.4686C28.5628 33.2376 28.0412 32.8278 27.8028 32.1646C27.5642 31.5014 26.8416 30.7116 25.5898 30.6372C25.5352 30.6344 25.4805 30.633 25.4252 30.633C23.8889 30.633 22.0808 31.7236 19.3981 33.3419C18.6753 33.7815 17.8633 34.2733 16.9766 34.7874L40.6258 48.4375C41.505 47.9234 42.3172 47.4315 43.0399 46.9995C45.7736 45.3464 47.6206 44.2294 49.3203 44.2294C49.3903 44.2294 49.4602 44.2314 49.5297 44.2352C51.0422 44.3171 51.8992 45.2261 52.1673 45.9787C52.3834 46.5822 52.8454 46.9398 53.1881 47.141C53.7435 47.4594 54.4866 47.6161 55.2644 47.6161C56.1978 47.6161 57.1812 47.3903 57.9492 46.9473C58.7314 46.4962 59.1251 45.9142 59.1113 45.3658C59.1002 44.9268 58.8279 44.5093 58.2846 44.1979C57.9418 43.9967 57.3159 43.736 56.2728 43.6092C54.9689 43.4528 53.3968 42.961 53.2477 42.0893C53.0837 41.061 55.3414 39.8167 58.4782 38.0881C59.2904 37.6411 60.1249 37.1791 60.9818 36.6799C59.894 36.1285 58.8359 35.5995 57.8151 35.0929C54.03 33.2301 51.2956 31.874 51.2062 30.8607C51.1317 29.989 52.5995 29.6239 53.881 29.5718C54.9018 29.5345 55.4681 29.3184 55.7661 29.147C56.1628 28.9179 56.3459 28.5976 56.334 28.2376C56.3143 27.6377 55.7532 26.9275 54.7379 26.3455C53.7033 25.7475 52.4453 25.4216 51.3946 25.4216C50.7957 25.4217 50.264 25.5276 49.8798 25.7494C49.5819 25.9208 49.2093 26.2486 49.1423 26.8372C49.0551 27.5562 48.4514 28.3813 47.0273 28.3813C46.9903 28.3813 46.9526 28.3807 46.9144 28.3795C45.2527 28.3348 43.338 27.0086 40.6855 25.1682C39.7317 24.5051 38.5992 23.7824 37.3996 23Z" fill="#343434"/>
</svg>
