<svg width="78" height="78" viewBox="0 0 78 78" fill="none" xmlns="http://www.w3.org/2000/svg">
<rect width="77.1875" height="77.1875" rx="38.5938" fill="#E8E8E8"/>
<path opacity="0.1" d="M58.6705 38.4931C57.0137 37.6785 55.0641 36.7196 53.9513 36.0172C54.1052 35.9979 54.2754 35.9838 54.4613 35.9763C55.5427 35.9369 56.428 35.7228 57.0917 35.3393C57.945 34.8472 58.4342 34.0408 58.4349 33.1258C58.4349 31.912 57.563 30.7123 56.0452 29.8352C54.8113 29.1187 53.2534 28.6906 51.8783 28.6906C50.9604 28.6906 50.1791 28.8727 49.5592 29.2309C48.7111 29.7193 48.1766 30.5146 48.0525 31.4927C48.0377 31.6236 47.7745 31.7158 47.3397 31.7158H47.3316C46.1341 31.6823 44.1725 30.3021 41.8973 28.7009L41.5361 28.4482C40.5965 27.7912 39.5314 27.0464 38.3808 26.2935L37.5944 25.7783L36.7827 26.2503C36 26.7045 35.2367 27.1259 34.4993 27.5333L34.3023 27.6425C30.2016 29.9178 27.9435 31.1709 28.2661 33.1733C28.573 35.0309 30.9159 35.5779 32.2769 35.7377C33.2565 35.8582 33.7769 36.0952 34.008 36.2305C34.0912 36.2781 34.15 36.3227 34.1886 36.3569C34.1203 36.4453 33.9738 36.5895 33.7018 36.7457C33.1183 37.0831 32.2791 37.2845 31.457 37.2845C30.7813 37.2845 30.1637 37.1515 29.7489 36.9121C29.5727 36.8125 29.3431 36.6401 29.2501 36.3859C28.8473 35.2761 27.6625 33.9412 25.6504 33.8327C25.559 33.8275 25.4683 33.8252 25.3761 33.8252C23.3699 33.8252 21.4665 34.9677 18.54 36.7233L17.9135 37.0972C17.359 37.428 16.7636 37.7833 16.1251 38.1542L14 39.3895L17.0171 41.3778C21.3386 44.1949 24.1936 46.0569 26.5416 46.1223L26.6776 46.1245C28.741 46.1245 29.8433 44.7064 29.9972 43.3714C30.0009 43.3639 30.0328 43.323 30.0916 43.2873C30.1689 43.2435 30.4714 43.0993 31.1389 43.0993C32.1133 43.0993 33.2625 43.4129 34.1359 43.917C34.5885 44.1786 34.8583 44.4231 35.007 44.5978C34.7855 44.6736 34.396 44.768 33.782 44.7918C32.6998 44.8274 31.2429 45.0593 30.4528 45.9565C30.0596 46.4025 29.873 46.9659 29.9258 47.5308C30.0738 49.2672 32.2397 50.8363 40.0019 54.8293L40.7363 55.2069L41.4528 54.798C42.3158 54.3052 43.1409 53.8444 43.9533 53.391C47.75 51.2919 50.0424 50.0253 49.7206 48.0222C49.4135 46.1647 47.0706 45.6169 45.7097 45.4571C44.73 45.3366 44.2097 45.1002 43.9785 44.965C43.8938 44.9159 43.8344 44.8706 43.7957 44.8356C43.8626 44.748 44.0083 44.6045 44.2766 44.4491C44.8608 44.1117 45.7023 43.9095 46.5273 43.9095C47.2045 43.9095 47.8236 44.0426 48.2258 44.2752C48.4056 44.3785 48.6375 44.5532 48.729 44.8096C49.1325 45.9194 50.3203 47.2536 52.3317 47.3613C52.4216 47.3666 52.5115 47.3688 52.6023 47.3688C54.572 47.3688 56.4927 46.2018 59.4213 44.4216L60.0054 44.07C60.6447 43.6851 61.3397 43.2666 62.0822 42.8347L64.489 41.4351L62.0124 40.164C60.8469 39.5657 59.7438 39.0216 58.6705 38.4931Z" fill="black"/>
<path d="M61.317 36.9515C61.317 36.9515 59.064 35.8175 57.9985 35.2923C56.2299 34.4229 54.7056 33.6719 53.5947 33.0117C53.8638 32.9721 54.1383 32.9438 54.4059 32.9328C55.4487 32.8948 56.0271 32.6739 56.3315 32.4989C56.7267 32.2708 56.9124 31.9545 56.908 31.5983C56.9009 31.0228 56.9198 28.9002 56.912 28.5369C56.8988 27.9209 56.325 27.1882 55.2813 26.5849C53.6296 25.6259 51.3994 25.3596 50.3186 25.9837C50.0141 26.1587 49.6412 26.4936 49.5651 27.0949C49.4813 27.8484 48.8345 28.7161 47.2894 28.6705C45.6376 28.6247 43.6968 27.2623 41.0253 25.3823C39.99 24.6593 38.8254 23.8373 37.5468 23C36.6943 23.4947 35.8647 23.9515 35.0655 24.3928C32.1161 26.0298 29.7668 27.3309 29.7612 28.2687C29.761 28.299 29.768 31.4029 29.768 31.4029C29.8898 32.1413 31.298 32.5675 32.4625 32.7045C33.5726 32.8406 34.2672 33.1166 34.6827 33.3455C34.6082 33.3953 34.5464 33.4489 34.4642 33.4961C32.8734 34.417 30.4226 34.4932 28.9993 33.671C28.5959 33.4428 28.0708 33.0241 27.8195 32.339C27.576 31.6692 26.8452 30.8549 25.5665 30.7864C23.9225 30.6951 22.0958 31.7987 19.3177 33.4656C18.587 33.8994 17.7802 34.3865 16.8896 34.9041V37.9486L17.8486 38.5804C21.8066 41.1606 24.6761 43.0255 26.5865 43.0787C27.8576 43.1168 28.4056 42.3557 28.4818 41.6935C28.5578 41.0313 28.9917 40.6507 29.3341 40.4452C30.5673 39.7373 33.0637 40.019 34.898 41.0769C35.1174 41.2038 35.3147 41.3367 35.495 41.4724C35.1137 41.6029 34.5765 41.7174 33.8325 41.7468C32.7225 41.7837 31.447 42.0869 31.44 42.7752C31.4397 42.7949 31.4481 45.2157 31.44 45.818C31.4397 45.8382 31.4405 45.8587 31.4425 45.8797C31.549 47.128 36.2453 49.6625 40.6979 51.9535C41.5656 51.4587 42.3952 50.9945 43.1867 50.5531C45.9814 49.0086 48.2146 47.777 48.2251 46.8441C48.2254 46.8116 48.229 44.3046 48.2251 43.7885C48.2248 43.7596 48.2224 43.7311 48.2179 43.7028C48.0961 42.9646 46.688 42.5383 45.5235 42.4013C44.4102 42.2649 43.7146 41.9875 43.2995 41.7583C43.3728 41.7092 43.4333 41.6563 43.5142 41.6098C45.1048 40.6887 47.5632 40.6126 48.9866 41.4347C49.3825 41.6629 49.9152 42.0817 50.1589 42.7666C50.4023 43.4365 51.1406 44.2509 52.4195 44.3193C54.0101 44.4107 55.8445 43.2918 58.6378 41.5945C59.437 41.115 61.317 39.9961 61.317 39.9961V36.9515Z" fill="#343434"/>
<path d="M40.6943 48.7465C37.7254 47.2187 31.6942 44.1058 31.5843 42.8228C31.5729 42.7012 31.6114 42.593 31.7012 42.4909C31.9937 42.1588 32.8319 41.9226 33.837 41.8895C35.0241 41.8423 35.7039 41.5841 36.0653 41.3755C36.5577 41.09 36.8179 40.6851 36.8174 40.2049C36.8168 39.4361 36.1261 38.5777 34.9691 37.9088C33.8389 37.2568 32.407 36.8675 31.139 36.8675C30.3777 36.8675 29.7291 37.0089 29.2629 37.2766C28.7227 37.6006 28.4046 38.0691 28.3396 38.6326C28.2729 39.2138 27.7972 39.8926 26.6773 39.8926L26.5903 39.8912C24.7108 39.8388 21.8651 37.9838 17.9265 35.416L17.1602 34.9116C17.7251 34.5814 18.2555 34.2646 18.7538 33.9674L19.4512 33.5516C22.089 31.9691 23.8315 30.9237 25.3753 30.9237C25.4367 30.9237 25.4977 30.9253 25.5585 30.9287C26.7601 30.9931 27.455 31.7549 27.6851 32.3877C27.9542 33.1216 28.5099 33.558 28.9288 33.7953C29.585 34.1743 30.4826 34.3831 31.4555 34.3831C32.5746 34.3831 33.697 34.1048 34.5355 33.6194C35.3985 33.1238 35.8944 32.4471 35.8952 31.763C35.896 31.1624 35.5213 30.6147 34.8397 30.2212C34.4318 29.9825 33.6905 29.6665 32.4795 29.5182C31.3122 29.3807 30.0102 28.9519 29.9087 28.335C29.7729 27.4932 32.2466 26.1204 35.1113 24.5306L35.2644 24.4461C36.0004 24.0395 36.7616 23.6193 37.5419 23.1675C38.6395 23.8881 39.6637 24.6045 40.5697 25.238L40.9433 25.4993C43.638 27.3956 45.585 28.7659 47.2851 28.813L47.4051 28.8146C48.9644 28.8146 49.6194 27.8966 49.7068 27.1103C49.7756 26.5668 50.1161 26.2645 50.3894 26.1072C50.7499 25.8992 51.2647 25.7891 51.8782 25.7891C52.9727 25.7891 54.2181 26.1326 55.2094 26.7082C56.1718 27.2645 56.7694 27.9736 56.7694 28.5587C56.7691 28.8757 56.5979 29.1356 56.2599 29.3308C55.9657 29.4996 55.4041 29.7087 54.4005 29.7455C53.9334 29.7647 52.3646 29.8796 51.7628 30.5567C51.5901 30.7508 51.5121 30.9727 51.531 31.2159C51.6297 32.3207 54.138 33.5539 57.9353 35.4202C58.9285 35.9099 59.9484 36.4127 61.0195 36.9596C60.356 37.348 59.7322 37.7236 59.1533 38.0727L58.5641 38.4274C55.867 40.0666 54.1054 41.1371 52.6024 41.1371C52.5435 41.1371 52.4856 41.1354 52.4273 41.1321C51.2198 41.0676 50.523 40.3058 50.2926 39.6731C50.0361 38.9509 49.4795 38.5094 49.0578 38.2662C48.4005 37.8867 47.5015 37.6779 46.5264 37.6779C45.4048 37.6779 44.2807 37.9562 43.4422 38.4417C42.5827 38.9374 42.0898 39.614 42.0895 40.2977C42.0892 40.8987 42.4642 41.4463 43.1455 41.8398C43.5534 42.0782 44.2947 42.3942 45.506 42.5428C46.673 42.68 47.9747 43.1089 48.0768 43.7257C48.2126 44.5676 45.8615 45.8668 43.1396 47.3712C42.3463 47.8135 41.5379 48.2658 40.6943 48.7465Z" fill="#FAFAFA"/>
<path d="M37.5373 23.3354C38.6093 24.0411 39.6104 24.7413 40.4982 25.3623L40.861 25.6159C43.5766 27.5269 45.5387 28.9076 47.2809 28.9559C47.3229 28.9571 47.3644 28.9577 47.4052 28.9577C49.0585 28.9577 49.7549 27.9713 49.8485 27.1307C49.898 26.7391 50.104 26.4364 50.4614 26.2309C50.8 26.0355 51.2902 25.9321 51.8788 25.9321C52.9492 25.9321 54.1675 26.2685 55.1383 26.8321C56.0565 27.3629 56.6269 28.0244 56.6267 28.5587C56.6266 28.8212 56.4792 29.0394 56.1892 29.2069C55.909 29.3679 55.3705 29.5674 54.3943 29.603C53.7781 29.6282 52.278 29.7623 51.6563 30.4619C51.4598 30.683 51.3673 30.9476 51.3891 31.2305C51.4902 32.3607 53.6817 33.4884 57.8722 35.5484C58.7867 35.9992 59.7282 36.4632 60.7226 36.9686C60.143 37.3099 59.5914 37.6423 59.0929 37.9428L58.4896 38.3059L58.4567 38.3259C55.8121 39.9329 54.065 40.9945 52.6024 40.9945C52.5465 40.9945 52.491 40.993 52.4347 40.9897C51.2971 40.9288 50.6423 40.2162 50.4279 39.6264C50.1562 38.8624 49.5717 38.3979 49.1295 38.1428C48.4509 37.7509 47.5266 37.5351 46.5268 37.5351C45.3808 37.5351 44.2306 37.8205 43.3715 38.3179C42.4663 38.84 41.9471 39.5617 41.9468 40.2977C41.9467 40.9519 42.3471 41.5435 43.0731 41.9628C43.4933 42.2086 44.2535 42.5333 45.4902 42.6849C46.8317 42.8428 47.8605 43.2904 47.936 43.7484C48.0558 44.4915 45.5212 45.8922 43.0476 47.2591C42.2964 47.6782 41.5108 48.1177 40.6909 48.5843C37.9276 47.1621 31.8289 44.005 31.7268 42.8085C31.7192 42.7271 31.7444 42.6582 31.8087 42.5853C32.0721 42.2862 32.8891 42.0639 33.8437 42.0321C35.06 41.9841 35.7621 41.7158 36.1374 41.499C36.6685 41.1909 36.9607 40.7313 36.9604 40.2049C36.9599 39.3726 36.2603 38.4906 35.0407 37.785C33.8899 37.1213 32.4315 36.725 31.1394 36.725C30.3532 36.725 29.6798 36.873 29.1873 37.1558C28.6101 37.5021 28.268 38.0071 28.1981 38.6163C28.1351 39.1644 27.7024 39.75 26.6772 39.75L26.5944 39.7488C24.7553 39.6974 21.7762 37.7554 18.0057 35.2974L17.4308 34.9187C17.9197 34.6318 18.3822 34.3558 18.8198 34.0947L19.4646 33.7105L19.5223 33.6759C22.1408 32.1047 23.8707 31.0667 25.3753 31.0667C25.4341 31.0667 25.4925 31.0683 25.5513 31.0715C26.683 31.1322 27.3359 31.8448 27.5515 32.4374C27.8354 33.2118 28.4191 33.6708 28.8564 33.9183C29.5351 34.3103 30.4582 34.5261 31.4558 34.5261C32.5992 34.5261 33.7478 34.2407 34.6064 33.7437C35.5155 33.2217 36.0374 32.4999 36.0383 31.7632C36.0392 31.1094 35.639 30.5178 34.9128 30.0985C34.4928 29.8527 33.7327 29.528 32.4958 29.3763C31.1542 29.2185 30.1255 28.7709 30.05 28.3129C29.9302 27.5697 32.5983 26.0887 35.1786 24.6566L35.2035 24.6428L35.3264 24.575C36.0415 24.1801 36.7795 23.7727 37.5373 23.3354ZM37.5468 23C36.6943 23.4947 35.8648 23.9515 35.0655 24.3928C32.021 26.0826 29.6159 27.4146 29.768 28.3584C29.8898 29.0967 31.298 29.5229 32.4625 29.6599C33.6422 29.8045 34.3654 30.109 34.7687 30.345C36.1919 31.167 36.055 32.5827 34.4642 33.496C33.6115 33.9897 32.512 34.2406 31.4558 34.2406C30.5415 34.2406 29.6596 34.0524 28.9993 33.671C28.5959 33.4428 28.0708 33.0241 27.8195 32.3391C27.576 31.6692 26.8453 30.8549 25.5665 30.7864C25.503 30.7829 25.4394 30.7811 25.3753 30.7811C23.7801 30.7811 21.9884 31.8631 19.3177 33.4656C18.587 33.8994 17.7802 34.3865 16.8896 34.9041L17.8486 35.5359C21.8066 38.1161 24.6761 39.9809 26.5865 40.0342C26.6173 40.0351 26.6474 40.0356 26.6772 40.0356C27.8836 40.0356 28.4074 39.2951 28.4817 38.6489C28.5578 37.9868 28.9917 37.6062 29.3341 37.4007C29.7937 37.1369 30.4285 37.0105 31.1394 37.0105C32.3359 37.0106 33.7473 37.3687 34.898 38.0324C36.74 39.098 37.2272 40.5365 35.9941 41.252C35.6516 41.4499 34.9894 41.7011 33.8325 41.7468C32.6907 41.7848 31.374 42.1045 31.4425 42.8352C31.549 44.0834 36.2453 46.618 40.6978 48.9091C41.5656 48.4142 42.3952 47.95 43.1868 47.5085C46.0791 45.9101 48.3701 44.6466 48.2179 43.7028C48.0961 42.9645 46.688 42.5383 45.5235 42.4013C44.3436 42.2567 43.6206 41.9522 43.2173 41.7163C41.794 40.8943 41.9309 39.4785 43.5142 38.5652C44.3668 38.0716 45.4686 37.8206 46.5268 37.8206C47.4429 37.8206 48.3262 38.0087 48.9866 38.3901C49.3825 38.6184 49.9152 39.0371 50.1589 39.7221C50.4023 40.3919 51.1406 41.2063 52.4195 41.2749C52.4801 41.2784 52.5409 41.2801 52.6024 41.2801C54.1513 41.2801 55.951 40.1826 58.6378 38.55C59.437 38.0705 60.3351 37.5223 61.317 36.9515C60.1601 36.3579 59.064 35.8175 57.9985 35.2924C54.3755 33.5113 51.7647 32.225 51.6735 31.2051C51.6049 30.3145 53.1044 29.9416 54.4059 29.8883C55.4487 29.8502 56.0271 29.6294 56.3315 29.4544C57.4124 28.8303 56.9405 27.544 55.2813 26.5849C54.2328 25.9762 52.9514 25.6465 51.8787 25.6465C51.2615 25.6465 50.7134 25.7557 50.3186 25.9837C50.0141 26.1588 49.6412 26.4936 49.5652 27.0949C49.4834 27.8293 48.8671 28.6722 47.4052 28.6722C47.3672 28.6722 47.3285 28.6717 47.2894 28.6705C45.6376 28.6247 43.6969 27.2624 41.0253 25.3823C39.9901 24.6593 38.8254 23.8372 37.5468 23Z" fill="#343434"/>
</svg>
