<svg width="78" height="78" viewBox="0 0 78 78" fill="none" xmlns="http://www.w3.org/2000/svg">
<rect width="77.1875" height="77.1875" rx="38.5938" fill="#E8E8E8"/>
<path opacity="0.1" d="M62.2357 40.1077C60.0417 38.9758 56.2636 37.0273 54.7902 35.8388C55 35.8038 55.2498 35.7756 55.5377 35.7637C56.6168 35.7242 57.5012 35.5108 58.1719 35.1263C59.0562 34.6154 59.5449 33.7764 59.5121 32.8282C59.4734 31.642 58.6003 30.4728 57.1233 29.6265C55.8835 28.9066 54.321 28.4766 52.9436 28.4766C52.0288 28.4766 51.2508 28.6581 50.6314 29.0152C49.7827 29.5052 49.2488 30.301 49.1261 31.2776C49.1134 31.3884 48.8888 31.5006 48.4121 31.5006H48.4054C46.4702 31.4463 42.0487 28.5874 38.4968 26.2909L37.7151 25.7852L14 39.4718L16.4766 40.751C20.9249 43.0476 22.9351 44.3432 23.7822 45.0736C23.5613 45.1122 23.2929 45.1435 22.9798 45.1561C21.891 45.2045 21.0097 45.4186 20.3574 45.7935C19.5073 46.2858 19.0187 47.0913 19.0165 48.0024C19.0135 49.2191 19.8859 50.4217 21.4097 51.3014C22.6481 52.0177 24.2077 52.4453 25.5813 52.4453C26.5013 52.4453 27.2822 52.2624 27.8943 51.9062C28.7592 51.4108 29.2954 50.6076 29.4033 49.6564C29.4204 49.5144 29.6866 49.4192 30.1195 49.4192H30.1239C31.7831 49.4682 34.9485 51.3364 38.9564 53.7007L39.0234 53.7402C39.4718 54.0109 39.9359 54.2808 40.4156 54.5598L41.1742 55L41.9358 54.5657C43.3585 53.7536 44.7016 53.1132 46.0723 52.4721C48.9542 51.1126 50.8582 50.2142 50.5525 48.3422C50.2647 46.4717 47.913 45.9206 46.5453 45.7601C45.5733 45.641 45.0356 45.4008 44.8132 45.2758C44.7262 45.2253 44.666 45.1792 44.6265 45.1435C44.6935 45.055 44.8393 44.9092 45.1114 44.7522C45.7042 44.4087 46.5238 44.2116 47.3604 44.2116C48.038 44.2116 48.6597 44.3454 49.0428 44.5656C49.2324 44.6786 49.477 44.8646 49.5641 45.1063C49.9642 46.2189 51.1505 47.5568 53.1682 47.6646C53.2485 47.6699 53.3289 47.6721 53.4092 47.6721C55.1242 47.6721 56.6064 46.6205 58.4873 45.2863C59.4965 44.5723 60.7519 43.6836 62.3048 42.777L64.7004 41.3788L62.2357 40.1077Z" fill="black"/>
<path d="M61.5373 36.8911C61.5373 36.8911 55.9222 33.9553 54.3796 32.8462C54.7378 32.7763 55.1166 32.7327 55.4828 32.7177C56.5262 32.6796 57.105 32.4587 57.4096 32.2836C57.8152 32.0494 58.0022 31.722 57.99 31.3541C57.9712 30.7823 58.0022 28.6757 57.99 28.3078C57.9698 27.6946 57.3962 26.9687 56.3586 26.3738C54.706 25.4142 52.4745 25.1401 51.3932 25.7645C51.0885 25.9397 50.7154 26.2748 50.6392 26.8764C50.5554 27.6304 49.9005 28.4986 48.3621 28.4529C46.1916 28.3919 42.7112 26.2595 37.6696 23L17.1758 34.8272V37.8735C17.1758 37.8735 22.7281 40.8411 24.2138 41.9667C23.8379 42.0439 23.4363 42.092 23.0475 42.1078C22.0117 42.1535 21.4253 42.3668 21.1208 42.5419C20.7284 42.7685 20.5405 43.0822 20.5397 43.4359C20.5383 44.0165 20.5405 46.1285 20.5397 46.4822C20.5382 47.1034 21.1137 47.8479 22.1717 48.4594C23.832 49.4189 26.0633 49.6855 27.1371 49.061C27.4418 48.8858 27.8226 48.5507 27.891 47.9491C27.9825 47.1951 28.6298 46.3346 30.1682 46.3726C32.232 46.4335 35.4078 48.3146 39.8097 50.9116C40.2514 51.1782 40.7083 51.4447 41.1805 51.7189C42.6884 50.8583 44.1353 50.1729 45.4224 49.5713C47.6006 48.5431 49.1693 47.7968 49.0475 47.0505C48.9498 46.4182 49.14 44.5706 49.0475 44.0042C48.9333 43.2654 47.5244 42.839 46.3592 42.7019C45.2411 42.5648 44.5433 42.2859 44.1286 42.0625C44.2036 42.0121 44.2658 41.9578 44.3486 41.9098C45.9402 40.9883 48.3926 40.9122 49.8243 41.7347C50.2203 41.9707 50.7534 42.3896 50.9971 43.0674C51.2409 43.7452 51.9796 44.5525 53.259 44.621C54.5385 44.6972 55.8256 43.7833 57.6076 42.5191C58.651 41.7803 61.5373 39.9374 61.5373 39.9374V36.8911Z" fill="#343434"/>
<path d="M41.1812 48.5076C40.7348 48.2484 40.3026 47.9957 39.8835 47.7431L39.7979 47.6923C35.4215 45.1106 32.2596 43.2451 30.1726 43.1834L30.071 43.1823C28.5099 43.1823 27.8447 44.0997 27.7493 44.8854C27.6876 45.4273 27.3436 45.7311 27.066 45.8907C26.7077 46.0991 26.1946 46.2091 25.5813 46.2091C24.4876 46.2091 23.2396 45.8653 22.2432 45.2894C21.2792 44.7322 20.6812 44.0221 20.6826 43.4362C20.6835 43.1198 20.8548 42.8606 21.1921 42.6655C21.4262 42.5311 21.9795 42.2981 23.054 42.2506C23.5233 42.2314 25.1025 42.1165 25.6993 41.4385C25.8693 41.2459 25.9446 41.0261 25.924 40.7855C25.8045 39.4099 22.6084 37.48 17.4736 34.8201L37.6656 23.1675C42.679 26.4077 46.1349 28.533 48.3584 28.5958L48.4773 28.5975C50.0378 28.5975 50.6938 27.679 50.7814 26.8924C50.8503 26.3475 51.191 26.0456 51.4644 25.8885C51.8227 25.6814 52.3339 25.5723 52.9435 25.5723C54.0395 25.5723 55.2895 25.918 56.287 26.4973C57.2451 27.0464 57.828 27.725 57.8472 28.3126C57.8582 28.6379 57.6821 28.915 57.338 29.1136C57.0445 29.2824 56.4831 29.4917 55.4776 29.5286C55.0102 29.5478 53.4404 29.6627 52.8383 30.3402C52.6656 30.5347 52.5875 30.7565 52.6064 30.9998C52.7262 32.3874 56.0947 34.2414 61.2418 36.8991C59.7217 37.8009 58.4588 38.6951 57.525 39.3561C55.8207 40.5651 54.5931 41.4362 53.4087 41.4362C53.3615 41.4362 53.3146 41.4348 53.2675 41.432C52.0548 41.3673 51.3592 40.6053 51.1316 39.9727C50.9307 39.4139 50.504 38.9273 49.8975 38.5656C49.2346 38.1848 48.3342 37.9758 47.3601 37.9758C46.2396 37.9758 45.1159 38.2543 44.2772 38.7398C43.4148 39.2389 42.9204 39.918 42.9206 40.6025C42.9212 41.2046 43.2973 41.7534 43.9803 42.1477C44.3983 42.3846 45.1464 42.6971 46.342 42.8435C47.5108 42.9811 48.8112 43.4094 48.9064 44.0258C49.0122 44.6725 47.3205 45.4711 45.3615 46.3957C44.0431 47.0121 42.6349 47.6826 41.1812 48.5076Z" fill="#FAFAFA"/>
<path d="M37.6612 23.3347C42.6554 26.5615 46.105 28.6754 48.3537 28.7385C48.3955 28.7397 48.4369 28.7403 48.4775 28.7403C50.1322 28.7403 50.8292 27.7533 50.9227 26.9123C50.9723 26.5203 51.1785 26.2175 51.5361 26.0119C51.8721 25.8178 52.3588 25.7153 52.9435 25.7152C54.0153 25.7152 55.2384 26.0538 56.2165 26.6217C57.1169 27.1379 57.687 27.7876 57.7045 28.3172C57.7134 28.5906 57.5662 28.8169 57.2671 28.9896C56.987 29.1507 56.4483 29.3502 55.4711 29.3859C54.8547 29.4111 53.3536 29.5454 52.7316 30.2453C52.5349 30.4666 52.4424 30.7313 52.4641 31.0134C52.5879 32.4502 55.8873 34.2914 60.948 36.9083C59.5221 37.7672 58.3326 38.6094 57.4378 39.243C55.7598 40.4334 54.5474 41.2935 53.4086 41.2935C53.3644 41.2935 53.3202 41.2922 53.2743 41.2895C52.1322 41.2283 51.4786 40.5159 51.2659 39.9245C51.0537 39.3339 50.6057 38.8216 49.9666 38.4406C49.2844 38.0487 48.3587 37.8329 47.36 37.8329C46.2153 37.8329 45.0655 38.1184 44.2055 38.6163C43.2978 39.1418 42.7774 39.8658 42.7778 40.6027C42.7782 41.2579 43.1798 41.8505 43.9109 42.2727C44.3396 42.5155 45.1065 42.8362 46.3257 42.9857C47.6685 43.1436 48.6944 43.5903 48.7655 44.0502C48.8535 44.5895 47.0472 45.4421 45.3013 46.2661C44.0003 46.8743 42.6128 47.535 41.1821 48.3431C40.7615 48.0986 40.3531 47.8595 39.9549 47.6192L39.8705 47.5695C35.4758 44.9767 32.3007 43.1035 30.1752 43.0407L30.0705 43.0394C28.4162 43.0394 27.7097 44.0247 27.6072 44.8705C27.5632 45.257 27.3571 45.5586 26.9934 45.7677C26.6576 45.9631 26.1693 46.0663 25.5815 46.0663C24.5117 46.0663 23.2904 45.7297 22.3148 45.1657C21.3948 44.6341 20.8241 43.9715 20.8254 43.4365C20.826 43.1746 20.9734 42.9569 21.2632 42.7896C21.4862 42.6614 22.0161 42.4393 23.0592 42.3933C23.6796 42.3681 25.1894 42.2337 25.8065 41.5331C26.0003 41.3131 26.0901 41.0504 26.0662 40.7733C25.958 39.5259 23.6988 37.8974 17.7707 34.8138L37.6612 23.3347ZM37.6696 23L17.1758 34.8273C22.2783 37.4623 25.6673 39.4804 25.7816 40.7979C25.8576 41.6814 24.3574 42.0545 23.0475 42.1078C22.0117 42.1535 21.4253 42.3668 21.1208 42.5419C20.7284 42.7684 20.5405 43.0822 20.5397 43.4359C20.5382 44.0571 21.1137 44.8016 22.1717 45.4131C23.2256 46.0222 24.5095 46.352 25.5815 46.352C26.1982 46.352 26.7449 46.2428 27.1371 46.0147C27.4418 45.8395 27.8225 45.5045 27.891 44.9028C27.9805 44.165 28.6022 43.3251 30.0705 43.3251C30.1026 43.3251 30.1353 43.3255 30.1682 43.3263C32.232 43.3873 35.4078 45.2683 39.8097 47.8653C40.2514 48.1319 40.7083 48.3984 41.1805 48.6726C42.6884 47.812 44.1353 47.1266 45.4224 46.525C47.6006 45.4969 49.1693 44.7505 49.0475 44.0042C48.9333 43.2654 47.5244 42.839 46.3591 42.7019C45.1787 42.5572 44.4552 42.2526 44.0516 42.0241C42.6275 41.2015 42.7569 39.7851 44.3486 38.8635C45.2018 38.3696 46.302 38.1186 47.36 38.1186C48.2758 38.1186 49.16 38.3067 49.8243 38.6884C50.2203 38.9245 50.7534 39.3434 50.9971 40.0211C51.2409 40.699 51.9796 41.5062 53.259 41.5747C53.3088 41.5777 53.3587 41.5792 53.4086 41.5792C54.6395 41.5792 55.8949 40.6878 57.6076 39.4728C58.6509 38.7341 59.9456 37.8202 61.5373 36.8911C56.4576 34.2713 52.8629 32.3141 52.7488 30.9889C52.6802 30.0979 54.1805 29.7247 55.4829 29.6714C56.5262 29.6333 57.105 29.4125 57.4096 29.2373C57.8151 29.0031 58.0022 28.6757 57.99 28.3078C57.9698 27.6947 57.3962 26.9687 56.3586 26.3738C55.3059 25.7626 54.0187 25.4294 52.9432 25.4295C52.3302 25.4295 51.7858 25.5378 51.3932 25.7645C51.0885 25.9397 50.7154 26.2748 50.6392 26.8764C50.5575 27.6113 49.9334 28.4546 48.4775 28.4546C48.4397 28.4546 48.4012 28.4541 48.3622 28.4529C46.1916 28.3919 42.7112 26.2595 37.6696 23Z" fill="#343434"/>
</svg>
