<svg width="24" height="24" viewBox="0 0 24 24" fill="none" xmlns="http://www.w3.org/2000/svg">
<path fill-rule="evenodd" clip-rule="evenodd" d="M10.8097 10.1659C11.2071 9.89965 11.6743 9.75756 12.1523 9.75756C12.4697 9.75756 12.7839 9.82023 13.0771 9.94198C13.3703 10.0637 13.6367 10.2422 13.8611 10.4672C14.0855 10.6921 14.2635 10.9592 14.3849 11.2532C14.5064 11.5471 14.5689 11.8621 14.5689 12.1803C14.5689 12.6595 14.4272 13.1279 14.1616 13.5263C13.8961 13.9247 13.5187 14.2353 13.0771 14.4186C12.6355 14.602 12.1496 14.65 11.6808 14.5565C11.2121 14.463 10.7815 14.2323 10.4435 13.8934C10.1056 13.5546 9.8754 13.1229 9.78215 12.653C9.68891 12.183 9.73677 11.6959 9.91967 11.2532C10.1026 10.8105 10.4123 10.4321 10.8097 10.1659ZM18.9733 16.9379C19.1937 16.3761 19.3221 15.7823 19.3533 15.1794V15.1697C19.3672 14.8036 19.3591 14.5651 19.3468 14.2007C19.3332 13.7968 19.3143 13.2383 19.3143 12.1803V9.19095C19.2966 8.58696 19.1814 7.98983 18.9733 7.42274C18.8 6.95591 18.5273 6.53253 18.1743 6.18206C17.8174 5.80915 17.381 5.52195 16.8978 5.34192C16.3321 5.13326 15.7365 5.01779 15.134 5H9.17055C8.56809 5.01779 7.97248 5.13326 7.40684 5.34192C6.94229 5.51785 6.52043 5.79093 6.16931 6.14299C5.79735 6.50081 5.51087 6.93829 5.33131 7.42274C5.12235 7.98924 5.01034 8.58705 5 9.19095V15.1697C5.01034 15.7736 5.12235 16.3714 5.33131 16.9379C5.5046 17.4047 5.77727 17.8281 6.13034 18.1785C6.48725 18.5515 6.92362 18.8387 7.40684 19.0187C7.97248 19.2273 8.56809 19.3428 9.17055 19.3606H15.134C15.7365 19.3428 16.3321 19.2273 16.8978 19.0187C17.3652 18.829 17.7898 18.5471 18.1463 18.1896C18.5029 17.8322 18.7841 17.4065 18.9733 16.9379ZM17.2581 7.07126C17.4953 7.30907 17.6782 7.59564 17.7942 7.9112V7.90143C17.9619 8.331 18.0479 8.78827 18.0476 9.24957V15.111C18.0431 15.5719 17.9573 16.0283 17.7942 16.4592C17.6782 16.7747 17.4953 17.0613 17.2581 17.2991C17.0209 17.5369 16.735 17.7203 16.4203 17.8366C15.9905 18.0001 15.5353 18.0861 15.0756 18.0906H9.22902C8.78629 18.0757 8.34878 17.9899 7.93303 17.8366C7.61827 17.7203 7.33243 17.5369 7.09523 17.2991C6.85802 17.0613 6.6751 16.7747 6.55908 16.4592C6.401 16.0269 6.31539 15.5714 6.30573 15.111V9.24957C6.29972 8.79198 6.36885 8.33651 6.51036 7.90143C6.63223 7.59491 6.81777 7.31791 7.05466 7.08883C7.29156 6.85976 7.57437 6.68386 7.88431 6.57283C8.3141 6.40933 8.76935 6.32333 9.22902 6.31883H15.0756C15.5329 6.31081 15.9881 6.38356 16.4203 6.53375C16.735 6.65007 17.0209 6.83345 17.2581 7.07126ZM10.7293 15.6279C11.1804 15.8155 11.6639 15.9121 12.1523 15.9121C12.8889 15.914 13.6095 15.6968 14.223 15.2879C14.8364 14.8791 15.315 14.2969 15.5982 13.6152C15.8814 12.9335 15.9565 12.1828 15.814 11.4583C15.6715 10.7337 15.3178 10.0679 14.7976 9.54499C14.2774 9.02211 13.6141 8.66572 12.8918 8.52094C12.1695 8.37615 11.4206 8.44948 10.7398 8.73164C10.0591 9.0138 9.47718 9.49211 9.06774 10.106C8.65829 10.7199 8.43973 11.4418 8.43973 12.1803C8.43845 12.6699 8.53353 13.155 8.71953 13.6077C8.90553 14.0604 9.17879 14.4718 9.52367 14.8185C9.86854 15.1652 10.2782 15.4402 10.7293 15.6279ZM15.4904 8.89492C15.6353 9.05635 15.8346 9.15832 16.05 9.18118C16.2654 9.15832 16.4648 9.05635 16.6096 8.89492C16.7545 8.73348 16.8347 8.52401 16.8347 8.30685C16.8347 8.08969 16.7545 7.88021 16.6096 7.71877C16.4648 7.55734 16.2654 7.45537 16.05 7.43251C15.8346 7.45537 15.6353 7.55734 15.4904 7.71877C15.3455 7.88021 15.2653 8.08969 15.2653 8.30685C15.2653 8.52401 15.3455 8.73348 15.4904 8.89492Z" fill="#212121" stroke="#212121" stroke-width="0.359015"/>
</svg>
