<svg width="24" height="24" viewBox="0 0 24 24" fill="none" xmlns="http://www.w3.org/2000/svg">
<path fill-rule="evenodd" clip-rule="evenodd" d="M6.05572 9.07653V17.4339H8.8415V9.07653H6.05572ZM6.42429 7.48222C6.69595 7.75388 7.06441 7.9065 7.44861 7.9065C7.65262 7.92964 7.85921 7.90942 8.05487 7.84718C8.25052 7.78494 8.43082 7.68207 8.58396 7.54532C8.7371 7.40856 8.85963 7.241 8.94353 7.05361C9.02742 6.86621 9.07079 6.66321 9.07079 6.45789C9.07079 6.25258 9.02742 6.04958 8.94353 5.86218C8.85963 5.67479 8.7371 5.50723 8.58396 5.37047C8.43082 5.23372 8.25052 5.13085 8.05487 5.06861C7.85921 5.00636 7.65262 4.98615 7.44861 5.00929C7.06441 5.00929 6.69595 5.16191 6.42429 5.43357C6.15262 5.70524 6 6.0737 6 6.45789C6 6.84209 6.15262 7.21055 6.42429 7.48222ZM16.1031 17.4339H18.8889V12.6238C18.8889 10.0516 17.5424 8.85367 15.6852 8.85367C15.1788 8.83496 14.6768 8.95478 14.2333 9.20022C13.7899 9.44567 13.4218 9.80744 13.1688 10.2466V9.06725H10.383V17.4246H13.1688V12.7816C13.1575 12.5519 13.1889 12.322 13.2616 12.1038C13.3679 11.8091 13.562 11.5541 13.8177 11.3731C14.0734 11.1921 14.3784 11.0939 14.6917 11.0916C15.7038 11.0916 16.1031 11.8252 16.1031 12.9488V17.4339Z" fill="#212121"/>
</svg>
