<svg width="33" height="33" viewBox="0 0 33 33" fill="none" xmlns="http://www.w3.org/2000/svg">
<rect width="33" height="32.7714" rx="16.3857" fill="#FFA0B7" fill-opacity="0.4"/>
<path fill-rule="evenodd" clip-rule="evenodd" d="M12.081 31.402L13.7801 31.7714V15.593H19.1729V31.7714L20.872 31.402V1.63096C19.7414 1.33603 18.5873 1.14024 17.4227 1.04581L17.2631 1.03288C16.715 0.988435 16.1642 0.989051 15.6162 1.03472L15.53 1.0419C14.3656 1.13894 13.2117 1.33602 12.081 1.63096V31.402ZM19.1729 13.9677V3.10844H13.7801V13.9677H19.1729ZM2.77297 16.4796C2.77297 14.6751 3.12838 12.8884 3.8189 11.2213L3.8189 7.56242C3.16687 8.49066 2.61706 9.48983 2.18089 10.5428C1.40127 12.425 1 14.4423 1 16.4796C1 18.5168 1.40127 20.5341 2.18089 22.4163C2.96052 24.2985 4.10323 26.0087 5.54379 27.4492C6.98434 28.8898 8.69453 30.0325 10.5767 30.8121L10.5767 2.14807L8.8306 3.03455V27.8714C8.10252 27.3804 7.42143 26.8195 6.79746 26.1956C5.52154 24.9196 4.50942 23.4049 3.8189 21.7378C3.12838 20.0708 2.77297 18.284 2.77297 16.4796ZM30.227 16.4796C30.227 14.6751 29.8716 12.8884 29.1811 11.2213V7.56242C29.8331 8.49066 30.3829 9.48983 30.8191 10.5428C31.5987 12.425 32 14.4423 32 16.4796C32 18.5168 31.5987 20.5341 30.8191 22.4163C30.0395 24.2985 28.8968 26.0087 27.4562 27.4492C26.0157 28.8898 24.3055 30.0325 22.4233 30.8121L22.4233 2.14807L24.1694 3.03455V27.8714C24.8975 27.3804 25.5786 26.8195 26.2025 26.1956C27.4785 24.9196 28.4906 23.4049 29.1811 21.7378C29.8716 20.0708 30.227 18.284 30.227 16.4796Z" fill="#CB0D3B"/>
<path d="M13.7801 31.7714L13.6739 32.26L14.2801 32.3918V31.7714H13.7801ZM12.081 31.402H11.581V31.805L11.9748 31.8906L12.081 31.402ZM13.7801 15.593V15.093H13.2801V15.593H13.7801ZM19.1729 15.593H19.6729V15.093H19.1729V15.593ZM19.1729 31.7714H18.6729V32.3918L19.2791 32.26L19.1729 31.7714ZM20.872 31.402L20.9782 31.8906L21.372 31.805V31.402H20.872ZM20.872 1.63096H21.372V1.24467L20.9982 1.14716L20.872 1.63096ZM17.4227 1.04581L17.3823 1.54418L17.4227 1.04581ZM17.2631 1.03288L17.3035 0.534511L17.2631 1.03288ZM15.6162 1.03472L15.6577 1.53299V1.53299L15.6162 1.03472ZM15.53 1.0419L15.4885 0.543626V0.543626L15.53 1.0419ZM12.081 1.63096L11.9548 1.14716L11.581 1.24467V1.63096H12.081ZM19.1729 13.9677V14.4677H19.6729V13.9677H19.1729ZM19.1729 3.10844H19.6729V2.60844H19.1729V3.10844ZM13.7801 3.10844V2.60844H13.2801V3.10844H13.7801ZM13.7801 13.9677H13.2801V14.4677H13.7801V13.9677ZM3.8189 11.2213L4.28084 11.4127L4.3189 11.3208V11.2213H3.8189ZM2.77297 16.4796H3.27297H2.77297ZM3.8189 7.56242H4.3189V5.98075L3.40975 7.27502L3.8189 7.56242ZM2.18089 10.5428L1.71895 10.3515L1.71895 10.3515L2.18089 10.5428ZM1 16.4796H0.5H1ZM2.18089 22.4163L2.64283 22.225L2.18089 22.4163ZM5.54379 27.4492L5.89734 27.0957H5.89734L5.54379 27.4492ZM10.5767 30.8121L10.3854 31.2741L11.0767 31.5604V30.8121H10.5767ZM10.5767 2.14807H11.0767V1.33348L10.3504 1.70224L10.5767 2.14807ZM8.8306 3.03455L8.60426 2.58872L8.3306 2.72765V3.03455H8.8306ZM8.8306 27.8714L8.55103 28.286L9.3306 28.8117V27.8714H8.8306ZM3.8189 21.7378L4.28084 21.5465H4.28084L3.8189 21.7378ZM29.1811 11.2213H28.6811V11.3208L28.7192 11.4127L29.1811 11.2213ZM29.1811 7.56242L29.5903 7.27502L28.6811 5.98074V7.56242H29.1811ZM30.8191 10.5428L31.281 10.3515V10.3515L30.8191 10.5428ZM30.8191 22.4163L30.3572 22.225L30.8191 22.4163ZM22.4233 30.8121H21.9233V31.5604L22.6146 31.2741L22.4233 30.8121ZM22.4233 2.14807L22.6496 1.70224L21.9233 1.33348V2.14807H22.4233ZM24.1694 3.03455H24.6694V2.72765L24.3957 2.58872L24.1694 3.03455ZM24.1694 27.8714H23.6694V28.8117L24.449 28.286L24.1694 27.8714ZM29.1811 21.7378L28.7192 21.5465L29.1811 21.7378ZM13.8864 31.2828L12.1873 30.9134L11.9748 31.8906L13.6739 32.26L13.8864 31.2828ZM13.2801 15.593V31.7714H14.2801V15.593H13.2801ZM19.1729 15.093H13.7801V16.093H19.1729V15.093ZM19.6729 31.7714V15.593H18.6729V31.7714H19.6729ZM20.7658 30.9134L19.0667 31.2828L19.2791 32.26L20.9782 31.8906L20.7658 30.9134ZM20.372 1.63096V31.402H21.372V1.63096H20.372ZM17.3823 1.54418C18.5179 1.63626 19.6433 1.82718 20.7458 2.11477L20.9982 1.14716C19.8395 0.844887 18.6567 0.644225 17.4631 0.54745L17.3823 1.54418ZM17.2227 1.53124L17.3823 1.54418L17.4631 0.54745L17.3035 0.534511L17.2227 1.53124ZM15.6577 1.53299C16.1785 1.4896 16.7019 1.48901 17.2227 1.53124L17.3035 0.534511C16.7282 0.48786 16.1499 0.488506 15.5747 0.536444L15.6577 1.53299ZM15.5716 1.54017L15.6577 1.53299L15.5747 0.536444L15.4885 0.543626L15.5716 1.54017ZM12.2073 2.11477C13.3101 1.82707 14.4357 1.63483 15.5716 1.54017L15.4885 0.543626C14.2955 0.643045 13.1132 0.844967 11.9548 1.14716L12.2073 2.11477ZM12.581 31.402V1.63096H11.581V31.402H12.581ZM19.6729 13.9677V3.10844H18.6729V13.9677H19.6729ZM19.1729 2.60844H13.7801V3.60844H19.1729V2.60844ZM13.2801 3.10844V13.9677H14.2801V3.10844H13.2801ZM13.7801 14.4677H19.1729V13.4677H13.7801V14.4677ZM3.35696 11.03C2.64131 12.7577 2.27297 14.6095 2.27297 16.4796H3.27297C3.27297 14.7408 3.61544 13.0191 4.28084 11.4127L3.35696 11.03ZM3.3189 7.56242L3.3189 11.2213H4.3189L4.3189 7.56242H3.3189ZM2.64283 10.7342C3.06494 9.71511 3.59703 8.74814 4.22805 7.84982L3.40975 7.27502C2.73671 8.23318 2.16918 9.26455 1.71895 10.3515L2.64283 10.7342ZM1.5 16.4796C1.5 14.508 1.88834 12.5557 2.64283 10.7342L1.71895 10.3515C0.914202 12.2943 0.5 14.3767 0.5 16.4796H1.5ZM2.64283 22.225C1.88833 20.4035 1.5 18.4512 1.5 16.4796H0.5C0.5 18.5825 0.914199 20.6648 1.71895 22.6077L2.64283 22.225ZM5.89734 27.0957C4.50321 25.7016 3.39733 24.0465 2.64283 22.225L1.71895 22.6077C2.5237 24.5505 3.70324 26.3158 5.19023 27.8028L5.89734 27.0957ZM10.7681 30.3502C8.94654 29.5957 7.29147 28.4898 5.89734 27.0957L5.19023 27.8028C6.67722 29.2898 8.44253 30.4693 10.3854 31.2741L10.7681 30.3502ZM10.0767 2.14807L10.0767 30.8121H11.0767L11.0767 2.14807L10.0767 2.14807ZM9.05695 3.48039L10.8031 2.5939L10.3504 1.70224L8.60426 2.58872L9.05695 3.48039ZM9.3306 27.8714V3.03455H8.3306V27.8714H9.3306ZM6.44391 26.5491C7.09059 27.1958 7.79645 27.7771 8.55103 28.286L9.11017 27.4569C8.40858 26.9837 7.75228 26.4433 7.15102 25.842L6.44391 26.5491ZM3.35696 21.9292C4.07261 23.6569 5.12156 25.2268 6.44391 26.5491L7.15102 25.842C5.92152 24.6125 4.94623 23.1529 4.28084 21.5465L3.35696 21.9292ZM2.27297 16.4796C2.27297 18.3497 2.64131 20.2014 3.35696 21.9292L4.28084 21.5465C3.61544 19.9401 3.27297 18.2183 3.27297 16.4796H2.27297ZM28.7192 11.4127C29.3846 13.0191 29.727 14.7408 29.727 16.4796H30.727C30.727 14.6095 30.3587 12.7577 29.643 11.03L28.7192 11.4127ZM28.6811 7.56242V11.2213H29.6811V7.56242H28.6811ZM31.281 10.3515C30.8308 9.26455 30.2633 8.23318 29.5903 7.27502L28.772 7.84982C29.403 8.74814 29.9351 9.71511 30.3572 10.7342L31.281 10.3515ZM32.5 16.4796C32.5 14.3767 32.0858 12.2943 31.281 10.3515L30.3572 10.7342C31.1117 12.5557 31.5 14.508 31.5 16.4796H32.5ZM31.281 22.6077C32.0858 20.6648 32.5 18.5825 32.5 16.4796H31.5C31.5 18.4512 31.1117 20.4035 30.3572 22.225L31.281 22.6077ZM27.8098 27.8028C29.2968 26.3158 30.4763 24.5505 31.281 22.6077L30.3572 22.225C29.6027 24.0465 28.4968 25.7016 27.1027 27.0957L27.8098 27.8028ZM22.6146 31.2741C24.5575 30.4693 26.3228 29.2898 27.8098 27.8028L27.1027 27.0957C25.7085 28.4898 24.0535 29.5957 22.2319 30.3502L22.6146 31.2741ZM21.9233 2.14807L21.9233 30.8121H22.9233L22.9233 2.14807L21.9233 2.14807ZM24.3957 2.58872L22.6496 1.70224L22.1969 2.5939L23.9431 3.48039L24.3957 2.58872ZM24.6694 27.8714V3.03455H23.6694V27.8714H24.6694ZM25.849 25.842C25.2477 26.4433 24.5914 26.9837 23.8898 27.4569L24.449 28.286C25.2035 27.7771 25.9094 27.1958 26.5561 26.5491L25.849 25.842ZM28.7192 21.5465C28.0538 23.1529 27.0785 24.6125 25.849 25.842L26.5561 26.5491C27.8784 25.2268 28.9274 23.6569 29.643 21.9292L28.7192 21.5465ZM29.727 16.4796C29.727 18.2183 29.3846 19.9401 28.7192 21.5465L29.643 21.9292C30.3587 20.2014 30.727 18.3497 30.727 16.4796H29.727Z" fill="#CB0D3B"/>
</svg>
