<svg width="40" height="40" viewBox="0 0 40 40" fill="none" xmlns="http://www.w3.org/2000/svg">
<rect width="40" height="40" rx="20" fill="#FFA0B7" fill-opacity="0.4"/>
<path fill-rule="evenodd" clip-rule="evenodd" d="M14.5833 38.5438L16.6661 39V19.021H23.2766V39L25.3593 38.5438V1.77917C23.9735 1.41497 22.5584 1.17314 21.1302 1.05649L20.9358 1.04061C20.2638 0.985714 19.5884 0.986475 18.9165 1.04288L18.812 1.05165C17.3841 1.17153 15.9692 1.41495 14.5833 1.77917V38.5438ZM23.2766 17.014V3.60372H16.6661V17.014H23.2766ZM3.17332 20.1159C3.17332 17.8876 3.60898 15.6811 4.45543 13.6224L4.45543 9.10402C3.65616 10.2503 2.9822 11.4842 2.44754 12.7846C1.49188 15.1089 1 17.6001 1 20.1159C1 22.6318 1.49187 25.123 2.44754 27.4473C3.40321 29.7716 4.80396 31.8836 6.5698 33.6625C8.33565 35.4415 10.432 36.8526 12.7392 37.8154L12.7392 2.41776L10.5988 3.51249V34.1839C9.70632 33.5775 8.87144 32.8849 8.10657 32.1143C6.54254 30.5387 5.30187 28.6681 4.45543 26.6094C3.60898 24.5507 3.17331 22.3442 3.17332 20.1159ZM36.8267 20.1159C36.8267 17.8876 36.391 15.6811 35.5446 13.6224V9.10401C36.3438 10.2503 37.0178 11.4842 37.5525 12.7846C38.5081 15.1089 39 17.6001 39 20.1159C39 22.6318 38.5081 25.123 37.5525 27.4473C36.5968 29.7716 35.1961 31.8835 33.4302 33.6625C31.6644 35.4415 29.568 36.8526 27.2608 37.8154L27.2608 2.41776L29.4012 3.51249V34.1839C30.2937 33.5775 31.1286 32.8849 31.8934 32.1143C33.4575 30.5387 34.6981 28.6681 35.5446 26.6094C36.391 24.5507 36.8267 22.3442 36.8267 20.1159Z" fill="#CB0D3B"/>
<path d="M16.6661 39L16.5591 39.4884L17.1661 39.6213V39H16.6661ZM14.5833 38.5438H14.0833V38.9462L14.4764 39.0323L14.5833 38.5438ZM16.6661 19.021V18.521H16.1661V19.021H16.6661ZM23.2766 19.021H23.7766V18.521H23.2766V19.021ZM23.2766 39H22.7766V39.6213L23.3835 39.4884L23.2766 39ZM25.3593 38.5438L25.4663 39.0323L25.8593 38.9462V38.5438H25.3593ZM25.3593 1.77917H25.8593V1.3936L25.4864 1.29559L25.3593 1.77917ZM21.1302 1.05649L21.1709 0.558148V0.558148L21.1302 1.05649ZM20.9358 1.04061L20.8951 1.53895V1.53895L20.9358 1.04061ZM18.9165 1.04288L18.9583 1.54113V1.54113L18.9165 1.04288ZM18.812 1.05165L18.7702 0.553405V0.553405L18.812 1.05165ZM14.5833 1.77917L14.4562 1.29559L14.0833 1.3936V1.77917H14.5833ZM23.2766 17.014V17.514H23.7766V17.014H23.2766ZM23.2766 3.60372H23.7766V3.10372H23.2766V3.60372ZM16.6661 3.60372V3.10372H16.1661V3.60372H16.6661ZM16.6661 17.014H16.1661V17.514H16.6661V17.014ZM4.45543 13.6224L4.91787 13.8126L4.95543 13.7212V13.6224H4.45543ZM3.17332 20.1159H3.67332H3.17332ZM4.45543 9.10402H4.95543L4.95543 7.51272L4.04528 8.81804L4.45543 9.10402ZM2.44754 12.7846L1.98511 12.5944L1.98511 12.5944L2.44754 12.7846ZM1 20.1159H0.5H1ZM2.44754 27.4473L1.98511 27.6374H1.98511L2.44754 27.4473ZM6.5698 33.6625L6.21494 34.0148L6.5698 33.6625ZM12.7392 37.8154L12.5466 38.2768L13.2392 38.5658V37.8154H12.7392ZM12.7392 2.41776H13.2392V1.60043L12.5115 1.97261L12.7392 2.41776ZM10.5988 3.51249L10.3711 3.06734L10.0988 3.20662V3.51249H10.5988ZM10.5988 34.1839L10.3178 34.5975L11.0988 35.1281V34.1839H10.5988ZM8.10657 32.1143L7.75171 32.4666H7.75171L8.10657 32.1143ZM4.45543 26.6094L4.91786 26.4193L4.91786 26.4193L4.45543 26.6094ZM35.5446 13.6224H35.0446V13.7212L35.0821 13.8126L35.5446 13.6224ZM35.5446 9.10401L35.9547 8.81804L35.0446 7.51272V9.10401H35.5446ZM37.5525 12.7846L37.09 12.9747L37.5525 12.7846ZM37.5525 27.4473L38.0149 27.6374L37.5525 27.4473ZM27.2608 37.8154H26.7608V38.5658L27.4534 38.2768L27.2608 37.8154ZM27.2608 2.41776L27.4885 1.97261L26.7608 1.60043V2.41776H27.2608ZM29.4012 3.51249H29.9012V3.20662L29.6289 3.06734L29.4012 3.51249ZM29.4012 34.1839H28.9012V35.1281L29.6822 34.5975L29.4012 34.1839ZM31.8934 32.1143L31.5386 31.7621L31.8934 32.1143ZM35.5446 26.6094L35.0821 26.4193L35.0821 26.4193L35.5446 26.6094ZM16.773 38.5116L14.6903 38.0554L14.4764 39.0323L16.5591 39.4884L16.773 38.5116ZM16.1661 19.021V39H17.1661V19.021H16.1661ZM23.2766 18.521H16.6661V19.521H23.2766V18.521ZM23.7766 39V19.021H22.7766V39H23.7766ZM25.2524 38.0554L23.1696 38.5116L23.3835 39.4884L25.4663 39.0323L25.2524 38.0554ZM24.8593 1.77917V38.5438H25.8593V1.77917H24.8593ZM21.0895 1.55483C22.4885 1.6691 23.8747 1.90598 25.2323 2.26275L25.4864 1.29559C24.0723 0.923949 22.6283 0.677186 21.1709 0.558148L21.0895 1.55483ZM20.8951 1.53895L21.0895 1.55483L21.1709 0.558148L20.9765 0.542268L20.8951 1.53895ZM18.9583 1.54113C19.6027 1.48703 20.2506 1.4863 20.8951 1.53895L20.9765 0.542268C20.277 0.48513 19.574 0.485923 18.8746 0.544637L18.9583 1.54113ZM18.8538 1.5499L18.9583 1.54113L18.8746 0.544637L18.7702 0.553405L18.8538 1.5499ZM14.7104 2.26275C16.0684 1.90587 17.4547 1.66736 18.8538 1.5499L18.7702 0.553405C17.3135 0.675701 15.8701 0.924026 14.4562 1.29559L14.7104 2.26275ZM15.0833 38.5438V1.77917H14.0833V38.5438H15.0833ZM23.7766 17.014V3.60372H22.7766V17.014H23.7766ZM23.2766 3.10372H16.6661V4.10372H23.2766V3.10372ZM16.1661 3.60372V17.014H17.1661V3.60372H16.1661ZM16.6661 17.514H23.2766V16.514H16.6661V17.514ZM3.99299 13.4323C3.12171 15.5514 2.67332 17.8225 2.67332 20.1159H3.67332C3.67332 17.9528 4.09624 15.8109 4.91787 13.8126L3.99299 13.4323ZM3.95543 9.10402L3.95543 13.6224H4.95543L4.95543 9.10402H3.95543ZM2.90998 12.9747C3.43074 11.7081 4.08716 10.5064 4.86557 9.38999L4.04528 8.81804C3.22516 9.99424 2.53366 11.2603 1.98511 12.5944L2.90998 12.9747ZM1.5 20.1159C1.5 17.6652 1.97914 15.2386 2.90998 12.9747L1.98511 12.5944C1.00461 14.9791 0.5 17.5349 0.5 20.1159H1.5ZM2.90998 27.2571C1.97914 24.9932 1.5 22.5666 1.5 20.1159H0.5C0.5 22.6969 1.00461 25.2527 1.98511 27.6374L2.90998 27.2571ZM6.92466 33.3103C5.20507 31.5779 3.84082 29.5211 2.90998 27.2571L1.98511 27.6374C2.96561 30.0221 4.40285 32.1892 6.21494 34.0148L6.92466 33.3103ZM12.9318 37.354C10.6855 36.4166 8.64425 35.0426 6.92466 33.3103L6.21494 34.0148C8.02705 35.8403 10.1785 37.2886 12.5466 38.2768L12.9318 37.354ZM12.2392 2.41776L12.2392 37.8154H13.2392L13.2392 2.41776L12.2392 2.41776ZM10.8265 3.95765L12.9669 2.86292L12.5115 1.97261L10.3711 3.06734L10.8265 3.95765ZM11.0988 34.1839V3.51249H10.0988V34.1839H11.0988ZM7.75171 32.4666C8.5392 33.2599 9.39882 33.9731 10.3178 34.5975L10.8798 33.7703C10.0138 33.182 9.20368 32.5098 8.46143 31.7621L7.75171 32.4666ZM3.99299 26.7995C4.86427 28.9186 6.14143 30.8443 7.75171 32.4666L8.46143 31.7621C6.94365 30.233 5.73948 28.4176 4.91786 26.4193L3.99299 26.7995ZM2.67332 20.1159C2.67331 22.4094 3.12171 24.6805 3.99299 26.7995L4.91786 26.4193C4.09624 24.421 3.67331 22.2791 3.67332 20.1159H2.67332ZM35.0821 13.8126C35.9038 15.8109 36.3267 17.9528 36.3267 20.1159H37.3267C37.3267 17.8225 36.8783 15.5514 36.007 13.4323L35.0821 13.8126ZM35.0446 9.10401V13.6224H36.0446V9.10401H35.0446ZM38.0149 12.5944C37.4664 11.2603 36.7748 9.99424 35.9547 8.81804L35.1344 9.38999C35.9128 10.5064 36.5693 11.7081 37.09 12.9747L38.0149 12.5944ZM39.5 20.1159C39.5 17.5349 38.9954 14.9791 38.0149 12.5944L37.09 12.9747C38.0209 15.2386 38.5 17.6652 38.5 20.1159H39.5ZM38.0149 27.6374C38.9954 25.2527 39.5 22.6969 39.5 20.1159H38.5C38.5 22.5666 38.0209 24.9932 37.09 27.2571L38.0149 27.6374ZM33.7851 34.0148C35.5972 32.1892 37.0344 30.0221 38.0149 27.6374L37.09 27.2571C36.1592 29.5211 34.7949 31.5779 33.0753 33.3103L33.7851 34.0148ZM27.4534 38.2768C29.8215 37.2886 31.973 35.8403 33.7851 34.0148L33.0753 33.3103C31.3558 35.0426 29.3145 36.4166 27.0683 37.354L27.4534 38.2768ZM26.7608 2.41776L26.7608 37.8154H27.7608L27.7608 2.41776L26.7608 2.41776ZM29.6289 3.06734L27.4885 1.97261L27.0331 2.86292L29.1735 3.95765L29.6289 3.06734ZM29.9012 34.1839V3.51249H28.9012V34.1839H29.9012ZM31.5386 31.7621C30.7963 32.5098 29.9862 33.182 29.1202 33.7703L29.6822 34.5975C30.6012 33.9731 31.4608 33.2599 32.2483 32.4666L31.5386 31.7621ZM35.0821 26.4193C34.2605 28.4176 33.0564 30.233 31.5386 31.7621L32.2483 32.4666C33.8586 30.8443 35.1357 28.9186 36.007 26.7995L35.0821 26.4193ZM36.3267 20.1159C36.3267 22.2791 35.9038 24.421 35.0821 26.4193L36.007 26.7995C36.8783 24.6805 37.3267 22.4094 37.3267 20.1159H36.3267Z" fill="#CB0D3B"/>
</svg>
