<svg width="98" height="32" viewBox="0 0 98 32" fill="none" xmlns="http://www.w3.org/2000/svg">
<rect width="98" height="32" rx="16" fill="#BDD23C"/>
<path d="M22.8008 9.488H26.4728L22.2968 23H16.7288L12.5528 9.488H16.2248L19.4888 21.632L22.8008 9.488ZM26.8917 23L30.7797 9.488H36.2757L40.3077 23H36.7317L33.5877 10.88L30.4917 23H26.8917ZM30.1317 19.616L30.0117 17.072H37.0917L36.9957 19.616H30.1317ZM50.7018 9.488H54.3738L50.1978 23H44.6298L40.4538 9.488H44.1258L47.3898 21.632L50.7018 9.488ZM66.4218 9.488H70.0938L65.9178 23H60.3498L56.1738 9.488H59.8458L63.1098 21.632L66.4218 9.488ZM82.1418 9.488H85.8138L81.6378 23H76.0698L71.8938 9.488H75.5658L78.8298 21.632L82.1418 9.488Z" fill="#4B5700"/>
</svg>
